G04 EAGLE Gerber RS-274X export*
G75*
%MOMM*%
%FSLAX34Y34*%
%LPD*%
%INTop Copper*%
%IPPOS*%
%AMOC8*
5,1,8,0,0,1.08239X$1,22.5*%
G01*
%ADD10R,3.500000X1.000000*%
%ADD11R,3.400000X1.500000*%
%ADD12C,1.000000*%
%ADD13C,1.050000*%
%ADD14C,0.700000*%

G36*
X84Y-115994D02*
X84Y-115994D01*
X196Y-115995D01*
X8905Y-115653D01*
X8937Y-115650D01*
X8969Y-115650D01*
X9491Y-115596D01*
X26694Y-112871D01*
X26821Y-112842D01*
X26950Y-112823D01*
X27177Y-112763D01*
X27311Y-112733D01*
X27374Y-112710D01*
X27457Y-112688D01*
X44023Y-107305D01*
X44143Y-107257D01*
X44268Y-107218D01*
X44483Y-107123D01*
X44610Y-107072D01*
X44669Y-107040D01*
X44747Y-107005D01*
X60267Y-99097D01*
X60379Y-99031D01*
X60495Y-98973D01*
X60692Y-98846D01*
X60811Y-98775D01*
X60864Y-98734D01*
X60936Y-98688D01*
X75027Y-88450D01*
X75127Y-88367D01*
X75233Y-88291D01*
X75408Y-88135D01*
X75514Y-88046D01*
X75560Y-87998D01*
X75624Y-87940D01*
X87940Y-75624D01*
X88026Y-75526D01*
X88119Y-75435D01*
X88267Y-75253D01*
X88358Y-75149D01*
X88395Y-75094D01*
X88450Y-75027D01*
X89967Y-72939D01*
X90060Y-72791D01*
X90162Y-72650D01*
X90229Y-72525D01*
X90306Y-72405D01*
X90380Y-72247D01*
X90462Y-72094D01*
X90514Y-71961D01*
X90574Y-71832D01*
X90627Y-71667D01*
X90690Y-71504D01*
X90724Y-71366D01*
X90768Y-71231D01*
X90800Y-71059D01*
X90842Y-70890D01*
X90858Y-70749D01*
X90885Y-70610D01*
X90895Y-70435D01*
X90915Y-70263D01*
X90913Y-70121D01*
X90922Y-69979D01*
X90910Y-69804D01*
X90908Y-69630D01*
X90889Y-69490D01*
X90879Y-69348D01*
X90846Y-69177D01*
X90822Y-69004D01*
X90785Y-68867D01*
X90757Y-68728D01*
X90702Y-68562D01*
X90657Y-68394D01*
X90603Y-68263D01*
X90558Y-68128D01*
X90483Y-67971D01*
X90416Y-67810D01*
X90346Y-67686D01*
X90285Y-67558D01*
X90190Y-67412D01*
X90104Y-67260D01*
X90019Y-67146D01*
X89942Y-67027D01*
X89829Y-66894D01*
X89725Y-66754D01*
X89626Y-66652D01*
X89535Y-66544D01*
X89406Y-66425D01*
X89285Y-66300D01*
X89174Y-66212D01*
X89070Y-66115D01*
X88928Y-66015D01*
X88791Y-65906D01*
X88670Y-65832D01*
X88554Y-65749D01*
X88401Y-65667D01*
X88252Y-65576D01*
X88122Y-65518D01*
X87997Y-65451D01*
X87834Y-65389D01*
X87675Y-65318D01*
X87539Y-65277D01*
X87406Y-65226D01*
X87237Y-65185D01*
X87070Y-65134D01*
X86930Y-65110D01*
X86792Y-65077D01*
X86619Y-65057D01*
X86447Y-65028D01*
X86279Y-65019D01*
X86164Y-65007D01*
X86062Y-65008D01*
X85923Y-65001D01*
X67204Y-65001D01*
X65734Y-64392D01*
X64608Y-63266D01*
X63999Y-61796D01*
X63999Y-45204D01*
X64608Y-43734D01*
X65734Y-42608D01*
X67204Y-41999D01*
X102889Y-41999D01*
X102951Y-42020D01*
X103015Y-42034D01*
X103077Y-42053D01*
X103324Y-42097D01*
X103570Y-42148D01*
X103635Y-42153D01*
X103699Y-42164D01*
X103951Y-42177D01*
X104201Y-42196D01*
X104266Y-42193D01*
X104331Y-42196D01*
X104581Y-42177D01*
X104832Y-42164D01*
X104896Y-42153D01*
X104961Y-42148D01*
X105206Y-42098D01*
X105454Y-42053D01*
X105517Y-42034D01*
X105580Y-42021D01*
X105818Y-41940D01*
X106058Y-41865D01*
X106117Y-41838D01*
X106178Y-41816D01*
X106404Y-41706D01*
X106632Y-41601D01*
X106688Y-41567D01*
X106746Y-41538D01*
X106956Y-41400D01*
X107169Y-41268D01*
X107219Y-41227D01*
X107274Y-41191D01*
X107465Y-41027D01*
X107659Y-40869D01*
X107704Y-40822D01*
X107754Y-40779D01*
X107922Y-40593D01*
X108096Y-40411D01*
X108134Y-40359D01*
X108178Y-40311D01*
X108321Y-40105D01*
X108471Y-39902D01*
X108502Y-39845D01*
X108539Y-39792D01*
X108656Y-39570D01*
X108778Y-39350D01*
X108803Y-39290D01*
X108833Y-39232D01*
X108985Y-38835D01*
X109014Y-38764D01*
X109017Y-38754D01*
X109021Y-38742D01*
X112688Y-27457D01*
X112720Y-27331D01*
X112762Y-27208D01*
X112810Y-26979D01*
X112845Y-26845D01*
X112853Y-26779D01*
X112871Y-26694D01*
X115596Y-9491D01*
X115598Y-9460D01*
X115605Y-9428D01*
X115636Y-9097D01*
X115650Y-8971D01*
X115650Y-8942D01*
X115653Y-8905D01*
X115995Y-196D01*
X115993Y-112D01*
X115999Y0D01*
X115994Y84D01*
X115995Y196D01*
X115653Y8905D01*
X115650Y8937D01*
X115650Y8969D01*
X115596Y9491D01*
X112871Y26694D01*
X112842Y26821D01*
X112823Y26950D01*
X112763Y27177D01*
X112733Y27311D01*
X112710Y27374D01*
X112688Y27457D01*
X109021Y38742D01*
X108997Y38803D01*
X108979Y38865D01*
X108881Y39096D01*
X108788Y39330D01*
X108757Y39387D01*
X108731Y39447D01*
X108604Y39663D01*
X108483Y39883D01*
X108444Y39936D01*
X108412Y39992D01*
X108258Y40191D01*
X108110Y40394D01*
X108065Y40441D01*
X108026Y40493D01*
X107849Y40670D01*
X107676Y40853D01*
X107626Y40895D01*
X107580Y40941D01*
X107382Y41095D01*
X107188Y41254D01*
X107132Y41289D01*
X107081Y41329D01*
X106865Y41457D01*
X106652Y41590D01*
X106593Y41618D01*
X106537Y41651D01*
X106307Y41751D01*
X106079Y41856D01*
X106017Y41876D01*
X105957Y41902D01*
X105716Y41972D01*
X105476Y42048D01*
X105412Y42060D01*
X105350Y42078D01*
X105102Y42117D01*
X104855Y42162D01*
X104790Y42165D01*
X104725Y42175D01*
X104474Y42183D01*
X104224Y42196D01*
X104159Y42192D01*
X104094Y42194D01*
X103844Y42169D01*
X103593Y42151D01*
X103529Y42138D01*
X103464Y42132D01*
X103219Y42076D01*
X102973Y42026D01*
X102912Y42006D01*
X102884Y41999D01*
X67204Y41999D01*
X65734Y42608D01*
X64608Y43734D01*
X63999Y45204D01*
X63999Y61796D01*
X64608Y63266D01*
X65734Y64392D01*
X67204Y65001D01*
X85923Y65001D01*
X86096Y65012D01*
X86271Y65013D01*
X86412Y65032D01*
X86553Y65041D01*
X86724Y65074D01*
X86897Y65097D01*
X87035Y65133D01*
X87174Y65160D01*
X87340Y65214D01*
X87508Y65259D01*
X87640Y65312D01*
X87775Y65357D01*
X87932Y65431D01*
X88094Y65497D01*
X88218Y65567D01*
X88346Y65627D01*
X88493Y65721D01*
X88645Y65807D01*
X88759Y65892D01*
X88878Y65968D01*
X89012Y66080D01*
X89152Y66184D01*
X89255Y66282D01*
X89364Y66373D01*
X89482Y66501D01*
X89608Y66622D01*
X89697Y66732D01*
X89794Y66837D01*
X89895Y66978D01*
X90005Y67114D01*
X90079Y67235D01*
X90162Y67350D01*
X90245Y67504D01*
X90336Y67652D01*
X90395Y67781D01*
X90462Y67906D01*
X90525Y68069D01*
X90597Y68228D01*
X90639Y68363D01*
X90690Y68496D01*
X90732Y68665D01*
X90783Y68832D01*
X90808Y68972D01*
X90842Y69110D01*
X90862Y69283D01*
X90892Y69454D01*
X90899Y69596D01*
X90915Y69737D01*
X90913Y69912D01*
X90921Y70086D01*
X90910Y70227D01*
X90908Y70370D01*
X90884Y70542D01*
X90870Y70716D01*
X90841Y70855D01*
X90822Y70996D01*
X90776Y71164D01*
X90741Y71334D01*
X90694Y71469D01*
X90657Y71606D01*
X90591Y71767D01*
X90534Y71932D01*
X90471Y72059D01*
X90416Y72190D01*
X90330Y72342D01*
X90253Y72498D01*
X90162Y72639D01*
X90104Y72740D01*
X90043Y72821D01*
X89967Y72939D01*
X88450Y75027D01*
X88367Y75127D01*
X88291Y75233D01*
X88135Y75408D01*
X88046Y75514D01*
X87998Y75560D01*
X87940Y75624D01*
X75624Y87940D01*
X75526Y88026D01*
X75435Y88119D01*
X75253Y88267D01*
X75149Y88358D01*
X75094Y88395D01*
X75027Y88450D01*
X60936Y98688D01*
X60826Y98757D01*
X60722Y98835D01*
X60518Y98952D01*
X60402Y99026D01*
X60342Y99054D01*
X60267Y99097D01*
X44747Y107005D01*
X44628Y107057D01*
X44513Y107117D01*
X44294Y107201D01*
X44167Y107256D01*
X44103Y107274D01*
X44023Y107305D01*
X27457Y112688D01*
X27331Y112720D01*
X27208Y112762D01*
X26979Y112810D01*
X26845Y112845D01*
X26779Y112853D01*
X26695Y112871D01*
X9491Y115596D01*
X9459Y115599D01*
X9428Y115605D01*
X8905Y115653D01*
X196Y115995D01*
X112Y115993D01*
X0Y115999D01*
X-84Y115994D01*
X-196Y115995D01*
X-8905Y115653D01*
X-8937Y115650D01*
X-8969Y115650D01*
X-9491Y115596D01*
X-26694Y112871D01*
X-26821Y112842D01*
X-26950Y112823D01*
X-27177Y112763D01*
X-27311Y112733D01*
X-27374Y112710D01*
X-27457Y112688D01*
X-44023Y107305D01*
X-44143Y107257D01*
X-44268Y107218D01*
X-44483Y107123D01*
X-44610Y107072D01*
X-44669Y107040D01*
X-44747Y107005D01*
X-60267Y99097D01*
X-60379Y99031D01*
X-60495Y98973D01*
X-60692Y98846D01*
X-60811Y98775D01*
X-60864Y98734D01*
X-60936Y98688D01*
X-75027Y88450D01*
X-75127Y88367D01*
X-75233Y88291D01*
X-75408Y88135D01*
X-75514Y88046D01*
X-75560Y87998D01*
X-75624Y87940D01*
X-87940Y75624D01*
X-88026Y75526D01*
X-88119Y75435D01*
X-88267Y75253D01*
X-88358Y75149D01*
X-88395Y75094D01*
X-88450Y75027D01*
X-89967Y72938D01*
X-90061Y72791D01*
X-90162Y72650D01*
X-90229Y72525D01*
X-90306Y72405D01*
X-90380Y72247D01*
X-90462Y72094D01*
X-90514Y71961D01*
X-90574Y71832D01*
X-90628Y71666D01*
X-90690Y71504D01*
X-90724Y71366D01*
X-90768Y71231D01*
X-90800Y71059D01*
X-90842Y70890D01*
X-90858Y70749D01*
X-90885Y70610D01*
X-90895Y70436D01*
X-90915Y70263D01*
X-90913Y70121D01*
X-90922Y69979D01*
X-90910Y69804D01*
X-90908Y69630D01*
X-90889Y69490D01*
X-90879Y69348D01*
X-90846Y69177D01*
X-90822Y69004D01*
X-90785Y68867D01*
X-90757Y68728D01*
X-90702Y68562D01*
X-90657Y68394D01*
X-90603Y68263D01*
X-90558Y68128D01*
X-90483Y67971D01*
X-90416Y67810D01*
X-90346Y67686D01*
X-90285Y67558D01*
X-90190Y67412D01*
X-90104Y67260D01*
X-90019Y67146D01*
X-89942Y67027D01*
X-89830Y66894D01*
X-89725Y66754D01*
X-89626Y66652D01*
X-89535Y66544D01*
X-89406Y66425D01*
X-89285Y66300D01*
X-89174Y66212D01*
X-89069Y66115D01*
X-88927Y66015D01*
X-88791Y65906D01*
X-88670Y65832D01*
X-88554Y65749D01*
X-88401Y65667D01*
X-88252Y65576D01*
X-88122Y65518D01*
X-87997Y65451D01*
X-87834Y65389D01*
X-87675Y65318D01*
X-87539Y65277D01*
X-87406Y65226D01*
X-87237Y65185D01*
X-87070Y65134D01*
X-86930Y65110D01*
X-86792Y65077D01*
X-86619Y65058D01*
X-86447Y65028D01*
X-86279Y65019D01*
X-86164Y65007D01*
X-86062Y65008D01*
X-85923Y65001D01*
X-67204Y65001D01*
X-65734Y64392D01*
X-64608Y63266D01*
X-63999Y61796D01*
X-63999Y45204D01*
X-64608Y43734D01*
X-65734Y42608D01*
X-67204Y41999D01*
X-102889Y41999D01*
X-102951Y42020D01*
X-103015Y42034D01*
X-103077Y42053D01*
X-103324Y42097D01*
X-103570Y42148D01*
X-103635Y42153D01*
X-103699Y42164D01*
X-103951Y42177D01*
X-104201Y42196D01*
X-104266Y42193D01*
X-104331Y42196D01*
X-104581Y42177D01*
X-104832Y42164D01*
X-104896Y42153D01*
X-104961Y42148D01*
X-105206Y42098D01*
X-105454Y42053D01*
X-105517Y42034D01*
X-105580Y42021D01*
X-105818Y41940D01*
X-106058Y41865D01*
X-106117Y41838D01*
X-106178Y41816D01*
X-106404Y41706D01*
X-106632Y41601D01*
X-106688Y41567D01*
X-106746Y41538D01*
X-106956Y41400D01*
X-107169Y41268D01*
X-107220Y41226D01*
X-107274Y41191D01*
X-107464Y41028D01*
X-107659Y40869D01*
X-107704Y40822D01*
X-107754Y40779D01*
X-107922Y40593D01*
X-108096Y40411D01*
X-108134Y40359D01*
X-108178Y40311D01*
X-108321Y40105D01*
X-108471Y39902D01*
X-108502Y39845D01*
X-108539Y39792D01*
X-108656Y39570D01*
X-108778Y39350D01*
X-108803Y39290D01*
X-108833Y39232D01*
X-108986Y38834D01*
X-109014Y38764D01*
X-109017Y38754D01*
X-109021Y38742D01*
X-112688Y27457D01*
X-112720Y27331D01*
X-112762Y27208D01*
X-112810Y26979D01*
X-112845Y26845D01*
X-112853Y26779D01*
X-112871Y26695D01*
X-115596Y9491D01*
X-115599Y9459D01*
X-115605Y9428D01*
X-115653Y8905D01*
X-115995Y196D01*
X-115993Y112D01*
X-115999Y0D01*
X-115994Y-84D01*
X-115995Y-196D01*
X-115653Y-8905D01*
X-115650Y-8937D01*
X-115650Y-8969D01*
X-115596Y-9491D01*
X-112871Y-26694D01*
X-112842Y-26821D01*
X-112823Y-26950D01*
X-112763Y-27177D01*
X-112733Y-27311D01*
X-112710Y-27374D01*
X-112688Y-27457D01*
X-109021Y-38742D01*
X-108997Y-38803D01*
X-108979Y-38865D01*
X-108881Y-39096D01*
X-108788Y-39330D01*
X-108757Y-39387D01*
X-108731Y-39447D01*
X-108604Y-39663D01*
X-108483Y-39883D01*
X-108444Y-39936D01*
X-108412Y-39992D01*
X-108258Y-40191D01*
X-108110Y-40394D01*
X-108065Y-40441D01*
X-108026Y-40493D01*
X-107849Y-40670D01*
X-107676Y-40853D01*
X-107626Y-40895D01*
X-107580Y-40941D01*
X-107382Y-41095D01*
X-107188Y-41254D01*
X-107132Y-41289D01*
X-107081Y-41329D01*
X-106865Y-41457D01*
X-106652Y-41590D01*
X-106593Y-41618D01*
X-106537Y-41651D01*
X-106307Y-41751D01*
X-106079Y-41856D01*
X-106017Y-41876D01*
X-105957Y-41902D01*
X-105716Y-41972D01*
X-105476Y-42048D01*
X-105412Y-42060D01*
X-105350Y-42078D01*
X-105102Y-42117D01*
X-104855Y-42162D01*
X-104790Y-42165D01*
X-104725Y-42175D01*
X-104474Y-42183D01*
X-104224Y-42196D01*
X-104159Y-42192D01*
X-104094Y-42194D01*
X-103844Y-42169D01*
X-103593Y-42151D01*
X-103529Y-42138D01*
X-103464Y-42132D01*
X-103219Y-42076D01*
X-102973Y-42026D01*
X-102912Y-42006D01*
X-102884Y-41999D01*
X-67204Y-41999D01*
X-65734Y-42608D01*
X-64608Y-43734D01*
X-63999Y-45204D01*
X-63999Y-61796D01*
X-64608Y-63266D01*
X-65734Y-64392D01*
X-67204Y-65001D01*
X-85923Y-65001D01*
X-86096Y-65012D01*
X-86271Y-65013D01*
X-86412Y-65032D01*
X-86553Y-65041D01*
X-86724Y-65074D01*
X-86897Y-65097D01*
X-87035Y-65133D01*
X-87174Y-65160D01*
X-87340Y-65214D01*
X-87508Y-65259D01*
X-87640Y-65312D01*
X-87775Y-65357D01*
X-87932Y-65431D01*
X-88094Y-65497D01*
X-88218Y-65567D01*
X-88346Y-65627D01*
X-88493Y-65721D01*
X-88645Y-65807D01*
X-88759Y-65892D01*
X-88878Y-65968D01*
X-89012Y-66080D01*
X-89152Y-66184D01*
X-89255Y-66282D01*
X-89364Y-66373D01*
X-89482Y-66501D01*
X-89608Y-66622D01*
X-89697Y-66732D01*
X-89794Y-66837D01*
X-89895Y-66978D01*
X-90005Y-67114D01*
X-90079Y-67235D01*
X-90162Y-67350D01*
X-90245Y-67504D01*
X-90336Y-67652D01*
X-90395Y-67781D01*
X-90462Y-67906D01*
X-90525Y-68069D01*
X-90597Y-68228D01*
X-90639Y-68363D01*
X-90690Y-68496D01*
X-90732Y-68665D01*
X-90783Y-68832D01*
X-90808Y-68972D01*
X-90842Y-69110D01*
X-90862Y-69283D01*
X-90892Y-69454D01*
X-90899Y-69596D01*
X-90915Y-69737D01*
X-90913Y-69912D01*
X-90921Y-70086D01*
X-90910Y-70227D01*
X-90908Y-70370D01*
X-90884Y-70542D01*
X-90870Y-70716D01*
X-90841Y-70855D01*
X-90822Y-70996D01*
X-90776Y-71164D01*
X-90741Y-71334D01*
X-90694Y-71469D01*
X-90657Y-71606D01*
X-90591Y-71767D01*
X-90534Y-71932D01*
X-90471Y-72059D01*
X-90416Y-72190D01*
X-90330Y-72342D01*
X-90253Y-72498D01*
X-90162Y-72639D01*
X-90104Y-72740D01*
X-90043Y-72821D01*
X-89967Y-72939D01*
X-88450Y-75027D01*
X-88367Y-75127D01*
X-88291Y-75233D01*
X-88135Y-75408D01*
X-88046Y-75514D01*
X-87998Y-75560D01*
X-87940Y-75624D01*
X-75624Y-87940D01*
X-75526Y-88026D01*
X-75435Y-88119D01*
X-75253Y-88267D01*
X-75149Y-88358D01*
X-75094Y-88395D01*
X-75027Y-88450D01*
X-60936Y-98688D01*
X-60826Y-98757D01*
X-60722Y-98835D01*
X-60518Y-98952D01*
X-60402Y-99026D01*
X-60342Y-99054D01*
X-60267Y-99097D01*
X-44748Y-107005D01*
X-44628Y-107057D01*
X-44513Y-107117D01*
X-44294Y-107201D01*
X-44167Y-107256D01*
X-44103Y-107274D01*
X-44023Y-107305D01*
X-27457Y-112688D01*
X-27331Y-112720D01*
X-27208Y-112762D01*
X-26979Y-112810D01*
X-26845Y-112845D01*
X-26779Y-112853D01*
X-26695Y-112871D01*
X-9491Y-115596D01*
X-9459Y-115599D01*
X-9428Y-115605D01*
X-8905Y-115653D01*
X-196Y-115995D01*
X-112Y-115993D01*
X0Y-115999D01*
X84Y-115994D01*
G37*
%LPC*%
G36*
X-51840Y-39251D02*
X-51840Y-39251D01*
X-55240Y-37842D01*
X-57842Y-35240D01*
X-59251Y-31840D01*
X-59251Y-28160D01*
X-57842Y-24760D01*
X-56618Y-23535D01*
X-56495Y-23396D01*
X-56366Y-23264D01*
X-56287Y-23159D01*
X-56200Y-23061D01*
X-56096Y-22907D01*
X-55984Y-22760D01*
X-55919Y-22646D01*
X-55845Y-22537D01*
X-55761Y-22372D01*
X-55669Y-22212D01*
X-55619Y-22091D01*
X-55559Y-21974D01*
X-55497Y-21799D01*
X-55426Y-21629D01*
X-55391Y-21502D01*
X-55347Y-21378D01*
X-55307Y-21198D01*
X-55258Y-21019D01*
X-55240Y-20889D01*
X-55212Y-20761D01*
X-55195Y-20577D01*
X-55169Y-20393D01*
X-55167Y-20262D01*
X-55155Y-20131D01*
X-55162Y-19946D01*
X-55159Y-19761D01*
X-55174Y-19631D01*
X-55178Y-19500D01*
X-55208Y-19317D01*
X-55229Y-19133D01*
X-55260Y-19005D01*
X-55281Y-18876D01*
X-55334Y-18699D01*
X-55378Y-18519D01*
X-55425Y-18396D01*
X-55462Y-18270D01*
X-55537Y-18101D01*
X-55603Y-17928D01*
X-55665Y-17812D01*
X-55718Y-17692D01*
X-55813Y-17534D01*
X-55901Y-17371D01*
X-55976Y-17264D01*
X-56044Y-17151D01*
X-56159Y-17006D01*
X-56266Y-16855D01*
X-56369Y-16741D01*
X-56437Y-16655D01*
X-56515Y-16579D01*
X-56618Y-16465D01*
X-57842Y-15240D01*
X-59251Y-11840D01*
X-59251Y-8160D01*
X-57842Y-4760D01*
X-56618Y-3535D01*
X-56495Y-3396D01*
X-56366Y-3264D01*
X-56287Y-3159D01*
X-56200Y-3061D01*
X-56096Y-2908D01*
X-55984Y-2760D01*
X-55919Y-2646D01*
X-55845Y-2537D01*
X-55761Y-2372D01*
X-55669Y-2212D01*
X-55619Y-2091D01*
X-55559Y-1974D01*
X-55497Y-1799D01*
X-55426Y-1629D01*
X-55391Y-1502D01*
X-55347Y-1378D01*
X-55307Y-1198D01*
X-55258Y-1019D01*
X-55240Y-889D01*
X-55212Y-761D01*
X-55195Y-577D01*
X-55169Y-394D01*
X-55167Y-262D01*
X-55155Y-131D01*
X-55162Y54D01*
X-55159Y239D01*
X-55174Y369D01*
X-55178Y500D01*
X-55208Y683D01*
X-55229Y867D01*
X-55260Y995D01*
X-55281Y1124D01*
X-55334Y1301D01*
X-55378Y1481D01*
X-55425Y1604D01*
X-55462Y1730D01*
X-55537Y1899D01*
X-55603Y2072D01*
X-55665Y2188D01*
X-55718Y2308D01*
X-55813Y2466D01*
X-55901Y2629D01*
X-55977Y2736D01*
X-56044Y2849D01*
X-56159Y2994D01*
X-56266Y3145D01*
X-56369Y3259D01*
X-56437Y3344D01*
X-56515Y3421D01*
X-56618Y3535D01*
X-57842Y4760D01*
X-59251Y8160D01*
X-59251Y11840D01*
X-57842Y15240D01*
X-55240Y17842D01*
X-51823Y19258D01*
X-51629Y19273D01*
X-51357Y19291D01*
X-51314Y19299D01*
X-51270Y19303D01*
X-51004Y19359D01*
X-50736Y19410D01*
X-50694Y19424D01*
X-50652Y19433D01*
X-50395Y19522D01*
X-50136Y19607D01*
X-50096Y19625D01*
X-50054Y19640D01*
X-49811Y19760D01*
X-49564Y19877D01*
X-49527Y19901D01*
X-49488Y19921D01*
X-49262Y20071D01*
X-49032Y20218D01*
X-48998Y20246D01*
X-48962Y20271D01*
X-48755Y20449D01*
X-48547Y20623D01*
X-48517Y20655D01*
X-48484Y20684D01*
X-48302Y20888D01*
X-48117Y21087D01*
X-48091Y21122D01*
X-48062Y21155D01*
X-47907Y21380D01*
X-47749Y21600D01*
X-47728Y21639D01*
X-47703Y21675D01*
X-47578Y21917D01*
X-47448Y22156D01*
X-47432Y22197D01*
X-47412Y22236D01*
X-47318Y22492D01*
X-47220Y22746D01*
X-47210Y22789D01*
X-47195Y22830D01*
X-47134Y23096D01*
X-47069Y23360D01*
X-47064Y23403D01*
X-47054Y23446D01*
X-47027Y23717D01*
X-46996Y23987D01*
X-46996Y24031D01*
X-46992Y24075D01*
X-46999Y24347D01*
X-47001Y24468D01*
X-47001Y25001D01*
X-27500Y25001D01*
X-7999Y25001D01*
X-7999Y24734D01*
X-8013Y24620D01*
X-8049Y24349D01*
X-8049Y24305D01*
X-8054Y24263D01*
X-8051Y23990D01*
X-8053Y23717D01*
X-8048Y23674D01*
X-8047Y23630D01*
X-8010Y23360D01*
X-7977Y23089D01*
X-7967Y23047D01*
X-7961Y23004D01*
X-7890Y22741D01*
X-7823Y22476D01*
X-7807Y22436D01*
X-7796Y22394D01*
X-7692Y22142D01*
X-7593Y21888D01*
X-7572Y21850D01*
X-7556Y21810D01*
X-7420Y21571D01*
X-7290Y21333D01*
X-7265Y21298D01*
X-7243Y21260D01*
X-7079Y21042D01*
X-6920Y20821D01*
X-6890Y20789D01*
X-6864Y20754D01*
X-6674Y20558D01*
X-6488Y20359D01*
X-6454Y20331D01*
X-6424Y20300D01*
X-6211Y20130D01*
X-6001Y19956D01*
X-5964Y19933D01*
X-5930Y19906D01*
X-5697Y19763D01*
X-5467Y19617D01*
X-5428Y19599D01*
X-5391Y19576D01*
X-5141Y19465D01*
X-4895Y19349D01*
X-4854Y19336D01*
X-4814Y19318D01*
X-4553Y19239D01*
X-4293Y19155D01*
X-4251Y19147D01*
X-4209Y19134D01*
X-3940Y19088D01*
X-3672Y19038D01*
X-3629Y19036D01*
X-3586Y19028D01*
X-3062Y19001D01*
X3062Y19001D01*
X3105Y19003D01*
X3148Y19001D01*
X3421Y19023D01*
X3693Y19041D01*
X3735Y19049D01*
X3778Y19052D01*
X4045Y19108D01*
X4313Y19160D01*
X4355Y19173D01*
X4397Y19182D01*
X4654Y19271D01*
X4914Y19357D01*
X4953Y19375D01*
X4994Y19389D01*
X5237Y19510D01*
X5485Y19627D01*
X5522Y19651D01*
X5561Y19670D01*
X5787Y19820D01*
X6018Y19968D01*
X6051Y19996D01*
X6087Y20020D01*
X6293Y20198D01*
X6503Y20373D01*
X6532Y20405D01*
X6565Y20433D01*
X6747Y20637D01*
X6933Y20837D01*
X6958Y20872D01*
X6987Y20904D01*
X7143Y21129D01*
X7301Y21350D01*
X7322Y21388D01*
X7346Y21424D01*
X7472Y21667D01*
X7602Y21906D01*
X7617Y21947D01*
X7637Y21985D01*
X7731Y22241D01*
X7829Y22496D01*
X7840Y22538D01*
X7855Y22579D01*
X7916Y22845D01*
X7981Y23110D01*
X7986Y23153D01*
X7996Y23195D01*
X8023Y23467D01*
X8054Y23737D01*
X8054Y23781D01*
X8058Y23824D01*
X8050Y24098D01*
X8047Y24370D01*
X8041Y24412D01*
X8040Y24456D01*
X7999Y24739D01*
X7999Y25001D01*
X27500Y25001D01*
X50000Y25001D01*
X55255Y25001D01*
X54724Y24469D01*
X53800Y23799D01*
X52783Y23280D01*
X51860Y22981D01*
X51800Y22957D01*
X51737Y22939D01*
X51506Y22840D01*
X51273Y22748D01*
X51216Y22716D01*
X51156Y22691D01*
X50939Y22564D01*
X50719Y22442D01*
X50667Y22404D01*
X50610Y22371D01*
X50411Y22217D01*
X50209Y22070D01*
X50161Y22025D01*
X50110Y21985D01*
X49932Y21808D01*
X49749Y21636D01*
X49708Y21585D01*
X49662Y21539D01*
X49508Y21342D01*
X49348Y21147D01*
X49314Y21092D01*
X49274Y21041D01*
X49146Y20825D01*
X49012Y20612D01*
X48985Y20553D01*
X48951Y20497D01*
X48852Y20267D01*
X48746Y20039D01*
X48726Y19976D01*
X48701Y19917D01*
X48631Y19676D01*
X48555Y19436D01*
X48543Y19372D01*
X48525Y19309D01*
X48486Y19061D01*
X48441Y18814D01*
X48437Y18750D01*
X48427Y18685D01*
X48420Y18433D01*
X48406Y18183D01*
X48411Y18118D01*
X48409Y18053D01*
X48433Y17804D01*
X48452Y17553D01*
X48464Y17489D01*
X48471Y17424D01*
X48527Y17180D01*
X48576Y16933D01*
X48597Y16871D01*
X48611Y16808D01*
X48754Y16404D01*
X48778Y16334D01*
X48782Y16325D01*
X48787Y16313D01*
X49001Y15796D01*
X49001Y3767D01*
X49010Y3615D01*
X49010Y3463D01*
X49030Y3300D01*
X49041Y3136D01*
X49069Y2987D01*
X49088Y2836D01*
X49129Y2677D01*
X49160Y2516D01*
X49207Y2371D01*
X49245Y2224D01*
X49305Y2071D01*
X49357Y1915D01*
X49422Y1777D01*
X49478Y1636D01*
X49557Y1492D01*
X49627Y1344D01*
X49710Y1215D01*
X49783Y1082D01*
X49880Y950D01*
X49968Y811D01*
X50066Y695D01*
X50155Y572D01*
X50268Y452D01*
X50373Y326D01*
X50485Y223D01*
X50589Y112D01*
X50716Y8D01*
X50837Y-104D01*
X50960Y-193D01*
X51078Y-289D01*
X51217Y-377D01*
X51350Y-472D01*
X51484Y-544D01*
X51613Y-625D01*
X51793Y-711D01*
X51906Y-773D01*
X51985Y-803D01*
X52087Y-852D01*
X55240Y-2158D01*
X57842Y-4760D01*
X59251Y-8160D01*
X59251Y-11840D01*
X57842Y-15240D01*
X56618Y-16465D01*
X56495Y-16604D01*
X56366Y-16736D01*
X56287Y-16841D01*
X56200Y-16939D01*
X56096Y-17092D01*
X55984Y-17240D01*
X55919Y-17354D01*
X55845Y-17463D01*
X55762Y-17627D01*
X55669Y-17788D01*
X55619Y-17909D01*
X55559Y-18026D01*
X55497Y-18200D01*
X55426Y-18371D01*
X55391Y-18498D01*
X55347Y-18622D01*
X55307Y-18802D01*
X55258Y-18981D01*
X55240Y-19111D01*
X55212Y-19239D01*
X55195Y-19423D01*
X55169Y-19606D01*
X55167Y-19738D01*
X55155Y-19869D01*
X55162Y-20053D01*
X55159Y-20238D01*
X55174Y-20369D01*
X55178Y-20500D01*
X55208Y-20683D01*
X55229Y-20867D01*
X55260Y-20995D01*
X55281Y-21124D01*
X55334Y-21301D01*
X55378Y-21481D01*
X55424Y-21604D01*
X55462Y-21730D01*
X55537Y-21899D01*
X55603Y-22072D01*
X55665Y-22187D01*
X55718Y-22308D01*
X55813Y-22466D01*
X55901Y-22629D01*
X55976Y-22736D01*
X56044Y-22849D01*
X56159Y-22994D01*
X56266Y-23145D01*
X56369Y-23259D01*
X56437Y-23344D01*
X56515Y-23421D01*
X56618Y-23535D01*
X57842Y-24760D01*
X59251Y-28160D01*
X59251Y-31840D01*
X57842Y-35240D01*
X55240Y-37842D01*
X51840Y-39251D01*
X48093Y-39251D01*
X47877Y-39177D01*
X47792Y-39159D01*
X47709Y-39134D01*
X47483Y-39096D01*
X47258Y-39049D01*
X47172Y-39043D01*
X47086Y-39028D01*
X46753Y-39011D01*
X46628Y-39001D01*
X46598Y-39003D01*
X46562Y-39001D01*
X9204Y-39001D01*
X7734Y-38392D01*
X6608Y-37266D01*
X5999Y-35796D01*
X5999Y-24204D01*
X6948Y-21913D01*
X6987Y-21800D01*
X7034Y-21691D01*
X7089Y-21501D01*
X7153Y-21315D01*
X7177Y-21198D01*
X7210Y-21083D01*
X7240Y-20889D01*
X7280Y-20696D01*
X7289Y-20577D01*
X7308Y-20459D01*
X7313Y-20262D01*
X7328Y-20066D01*
X7322Y-19946D01*
X7326Y-19827D01*
X7307Y-19631D01*
X7297Y-19434D01*
X7276Y-19317D01*
X7264Y-19198D01*
X7220Y-19006D01*
X7186Y-18812D01*
X7150Y-18698D01*
X7123Y-18582D01*
X7039Y-18342D01*
X6997Y-18209D01*
X6973Y-18156D01*
X6948Y-18087D01*
X5999Y-15796D01*
X5999Y-4000D01*
X5988Y-3815D01*
X5986Y-3630D01*
X5968Y-3500D01*
X5959Y-3369D01*
X5924Y-3188D01*
X5899Y-3004D01*
X5865Y-2878D01*
X5840Y-2748D01*
X5782Y-2572D01*
X5734Y-2394D01*
X5684Y-2273D01*
X5643Y-2148D01*
X5564Y-1980D01*
X5494Y-1810D01*
X5429Y-1695D01*
X5373Y-1577D01*
X5273Y-1421D01*
X5182Y-1260D01*
X5103Y-1155D01*
X5032Y-1044D01*
X4913Y-902D01*
X4802Y-754D01*
X4711Y-660D01*
X4627Y-559D01*
X4491Y-433D01*
X4362Y-300D01*
X4260Y-218D01*
X4163Y-129D01*
X4013Y-21D01*
X3869Y94D01*
X3756Y163D01*
X3650Y239D01*
X3487Y327D01*
X3329Y424D01*
X3209Y477D01*
X3094Y540D01*
X2921Y606D01*
X2752Y682D01*
X2627Y720D01*
X2504Y768D01*
X2324Y812D01*
X2147Y866D01*
X2018Y888D01*
X1890Y919D01*
X1707Y941D01*
X1524Y972D01*
X1371Y980D01*
X1263Y992D01*
X1154Y991D01*
X1000Y999D01*
X-1000Y999D01*
X-1185Y988D01*
X-1370Y986D01*
X-1500Y968D01*
X-1631Y959D01*
X-1812Y924D01*
X-1996Y899D01*
X-2122Y865D01*
X-2252Y840D01*
X-2428Y782D01*
X-2606Y734D01*
X-2727Y684D01*
X-2852Y643D01*
X-3020Y564D01*
X-3190Y494D01*
X-3305Y429D01*
X-3423Y373D01*
X-3579Y273D01*
X-3740Y182D01*
X-3845Y103D01*
X-3956Y32D01*
X-4098Y-87D01*
X-4246Y-198D01*
X-4340Y-289D01*
X-4441Y-373D01*
X-4567Y-509D01*
X-4700Y-638D01*
X-4782Y-740D01*
X-4871Y-837D01*
X-4979Y-987D01*
X-5094Y-1131D01*
X-5163Y-1244D01*
X-5239Y-1350D01*
X-5327Y-1513D01*
X-5424Y-1671D01*
X-5477Y-1791D01*
X-5540Y-1906D01*
X-5606Y-2079D01*
X-5682Y-2248D01*
X-5720Y-2373D01*
X-5768Y-2496D01*
X-5812Y-2676D01*
X-5866Y-2853D01*
X-5888Y-2982D01*
X-5919Y-3110D01*
X-5941Y-3293D01*
X-5972Y-3476D01*
X-5980Y-3629D01*
X-5992Y-3737D01*
X-5991Y-3846D01*
X-5999Y-4000D01*
X-5999Y-15796D01*
X-6948Y-18087D01*
X-6987Y-18200D01*
X-7034Y-18309D01*
X-7089Y-18499D01*
X-7153Y-18685D01*
X-7177Y-18802D01*
X-7210Y-18917D01*
X-7240Y-19111D01*
X-7280Y-19304D01*
X-7289Y-19423D01*
X-7308Y-19541D01*
X-7313Y-19738D01*
X-7328Y-19934D01*
X-7322Y-20054D01*
X-7326Y-20173D01*
X-7307Y-20369D01*
X-7297Y-20566D01*
X-7276Y-20683D01*
X-7264Y-20802D01*
X-7220Y-20994D01*
X-7186Y-21188D01*
X-7150Y-21302D01*
X-7123Y-21418D01*
X-7039Y-21657D01*
X-6997Y-21791D01*
X-6973Y-21844D01*
X-6948Y-21913D01*
X-5999Y-24204D01*
X-5999Y-35796D01*
X-6608Y-37266D01*
X-7734Y-38392D01*
X-9204Y-39001D01*
X-46562Y-39001D01*
X-46648Y-39006D01*
X-46735Y-39004D01*
X-46964Y-39026D01*
X-47193Y-39041D01*
X-47278Y-39057D01*
X-47364Y-39065D01*
X-47588Y-39117D01*
X-47814Y-39160D01*
X-47896Y-39187D01*
X-47980Y-39206D01*
X-48106Y-39251D01*
X-51840Y-39251D01*
G37*
%LPD*%
%LPC*%
G36*
X8508Y62499D02*
X8508Y62499D01*
X5751Y63641D01*
X3641Y65751D01*
X2124Y69413D01*
X2057Y69550D01*
X1999Y69690D01*
X1918Y69833D01*
X1846Y69981D01*
X1762Y70107D01*
X1687Y70240D01*
X1589Y70372D01*
X1498Y70509D01*
X1399Y70624D01*
X1308Y70746D01*
X1194Y70864D01*
X1087Y70988D01*
X974Y71090D01*
X868Y71200D01*
X740Y71302D01*
X618Y71412D01*
X493Y71499D01*
X374Y71594D01*
X234Y71680D01*
X99Y71774D01*
X-35Y71844D01*
X-165Y71924D01*
X-315Y71991D01*
X-461Y72067D01*
X-603Y72120D01*
X-742Y72182D01*
X-899Y72230D01*
X-1053Y72287D01*
X-1201Y72322D01*
X-1347Y72366D01*
X-1509Y72393D01*
X-1669Y72431D01*
X-1820Y72446D01*
X-1970Y72472D01*
X-2169Y72482D01*
X-2297Y72495D01*
X-2382Y72493D01*
X-2494Y72499D01*
X-21492Y72499D01*
X-24249Y73641D01*
X-26359Y75751D01*
X-27501Y78508D01*
X-27501Y81492D01*
X-26359Y84249D01*
X-24249Y86359D01*
X-21492Y87501D01*
X-2494Y87501D01*
X-2343Y87510D01*
X-2190Y87510D01*
X-2027Y87530D01*
X-1864Y87541D01*
X-1714Y87569D01*
X-1563Y87588D01*
X-1404Y87629D01*
X-1243Y87660D01*
X-1098Y87707D01*
X-951Y87745D01*
X-798Y87805D01*
X-642Y87857D01*
X-504Y87922D01*
X-363Y87978D01*
X-219Y88057D01*
X-71Y88127D01*
X57Y88210D01*
X191Y88283D01*
X323Y88380D01*
X461Y88468D01*
X578Y88566D01*
X701Y88655D01*
X821Y88768D01*
X947Y88873D01*
X1050Y88985D01*
X1161Y89089D01*
X1265Y89216D01*
X1377Y89337D01*
X1465Y89460D01*
X1562Y89578D01*
X1649Y89717D01*
X1745Y89850D01*
X1817Y89984D01*
X1898Y90113D01*
X1984Y90293D01*
X2045Y90406D01*
X2076Y90485D01*
X2124Y90587D01*
X3641Y94249D01*
X5751Y96359D01*
X8508Y97501D01*
X11492Y97501D01*
X14249Y96359D01*
X26359Y84249D01*
X27501Y81492D01*
X27501Y78508D01*
X26359Y75751D01*
X14249Y63641D01*
X11492Y62499D01*
X8508Y62499D01*
G37*
%LPD*%
%LPC*%
G36*
X8508Y-97501D02*
X8508Y-97501D01*
X5751Y-96359D01*
X3641Y-94249D01*
X2124Y-90587D01*
X2057Y-90450D01*
X1999Y-90310D01*
X1918Y-90167D01*
X1846Y-90019D01*
X1762Y-89893D01*
X1687Y-89760D01*
X1589Y-89628D01*
X1498Y-89491D01*
X1399Y-89376D01*
X1308Y-89254D01*
X1194Y-89136D01*
X1087Y-89012D01*
X974Y-88910D01*
X868Y-88800D01*
X740Y-88698D01*
X618Y-88588D01*
X493Y-88501D01*
X374Y-88406D01*
X234Y-88320D01*
X99Y-88226D01*
X-35Y-88156D01*
X-165Y-88076D01*
X-315Y-88009D01*
X-461Y-87933D01*
X-603Y-87880D01*
X-742Y-87818D01*
X-899Y-87770D01*
X-1053Y-87713D01*
X-1201Y-87678D01*
X-1347Y-87634D01*
X-1509Y-87607D01*
X-1669Y-87569D01*
X-1820Y-87554D01*
X-1970Y-87528D01*
X-2169Y-87518D01*
X-2297Y-87505D01*
X-2382Y-87507D01*
X-2494Y-87501D01*
X-21492Y-87501D01*
X-24249Y-86359D01*
X-26359Y-84249D01*
X-27501Y-81492D01*
X-27501Y-78508D01*
X-26359Y-75751D01*
X-24249Y-73641D01*
X-21492Y-72499D01*
X-2494Y-72499D01*
X-2343Y-72490D01*
X-2190Y-72490D01*
X-2027Y-72470D01*
X-1864Y-72459D01*
X-1714Y-72431D01*
X-1563Y-72412D01*
X-1404Y-72371D01*
X-1243Y-72340D01*
X-1098Y-72293D01*
X-951Y-72255D01*
X-798Y-72195D01*
X-642Y-72143D01*
X-504Y-72078D01*
X-363Y-72022D01*
X-219Y-71943D01*
X-71Y-71873D01*
X57Y-71790D01*
X191Y-71717D01*
X323Y-71620D01*
X461Y-71532D01*
X578Y-71434D01*
X701Y-71345D01*
X821Y-71232D01*
X947Y-71127D01*
X1050Y-71015D01*
X1161Y-70911D01*
X1265Y-70784D01*
X1377Y-70663D01*
X1465Y-70540D01*
X1562Y-70422D01*
X1649Y-70283D01*
X1745Y-70150D01*
X1817Y-70016D01*
X1898Y-69887D01*
X1984Y-69707D01*
X2045Y-69594D01*
X2076Y-69515D01*
X2124Y-69413D01*
X3641Y-65751D01*
X5751Y-63641D01*
X8508Y-62499D01*
X11492Y-62499D01*
X14249Y-63641D01*
X26359Y-75751D01*
X27501Y-78508D01*
X27501Y-81492D01*
X26359Y-84249D01*
X14249Y-96359D01*
X11492Y-97501D01*
X8508Y-97501D01*
G37*
%LPD*%
%LPC*%
G36*
X32499Y34999D02*
X32499Y34999D01*
X32499Y37001D01*
X45197Y37001D01*
X45707Y36899D01*
X45771Y36891D01*
X45834Y36876D01*
X46042Y36853D01*
X46301Y36537D01*
X46301Y36536D01*
X46339Y36499D01*
X46373Y36459D01*
X46374Y36458D01*
X46566Y36280D01*
X46755Y36097D01*
X46798Y36064D01*
X46837Y36028D01*
X47050Y35875D01*
X47261Y35717D01*
X47307Y35691D01*
X47350Y35660D01*
X47582Y35535D01*
X47810Y35405D01*
X47860Y35385D01*
X47907Y35360D01*
X48152Y35265D01*
X48395Y35165D01*
X48446Y35151D01*
X48496Y35132D01*
X48752Y35068D01*
X49005Y35000D01*
X49010Y34999D01*
X32499Y34999D01*
G37*
%LPD*%
%LPC*%
G36*
X-47001Y34999D02*
X-47001Y34999D01*
X-47001Y35197D01*
X-46924Y35584D01*
X-46773Y35948D01*
X-46554Y36275D01*
X-46275Y36554D01*
X-45948Y36773D01*
X-45584Y36924D01*
X-45197Y37001D01*
X-32499Y37001D01*
X-32499Y34999D01*
X-47001Y34999D01*
G37*
%LPD*%
%LPC*%
G36*
X7999Y34999D02*
X7999Y34999D01*
X7999Y35197D01*
X8076Y35584D01*
X8227Y35948D01*
X8446Y36275D01*
X8725Y36554D01*
X9052Y36773D01*
X9416Y36924D01*
X9803Y37001D01*
X22501Y37001D01*
X22501Y34999D01*
X7999Y34999D01*
G37*
%LPD*%
%LPC*%
G36*
X-22501Y34999D02*
X-22501Y34999D01*
X-22501Y37001D01*
X-9803Y37001D01*
X-9416Y36924D01*
X-9052Y36773D01*
X-8725Y36554D01*
X-8446Y36275D01*
X-8227Y35948D01*
X-8076Y35584D01*
X-7999Y35197D01*
X-7999Y34999D01*
X-22501Y34999D01*
G37*
%LPD*%
%LPC*%
G36*
X50990Y34999D02*
X50990Y34999D01*
X50996Y35000D01*
X51250Y35069D01*
X51505Y35132D01*
X51555Y35151D01*
X51606Y35165D01*
X51849Y35265D01*
X52094Y35360D01*
X52141Y35385D01*
X52191Y35405D01*
X52419Y35535D01*
X52650Y35660D01*
X52694Y35691D01*
X52740Y35718D01*
X52951Y35876D01*
X53164Y36029D01*
X53203Y36065D01*
X53246Y36097D01*
X53435Y36280D01*
X53510Y36350D01*
X53800Y36201D01*
X54724Y35531D01*
X55255Y34999D01*
X50990Y34999D01*
G37*
%LPD*%
D10*
X27500Y10000D03*
X27500Y30000D03*
X27500Y-10000D03*
X27500Y-30000D03*
D11*
X85000Y53500D03*
X85000Y-53500D03*
D10*
X-27500Y-10000D03*
X-27500Y-30000D03*
X-27500Y10000D03*
X-27500Y30000D03*
D11*
X-85000Y-53500D03*
X-85000Y53500D03*
D12*
X-27500Y10000D02*
X27500Y10000D01*
D13*
X-50000Y10000D03*
D12*
X-27500Y10000D01*
X-27500Y30000D02*
X27500Y30000D01*
D13*
X50000Y30000D03*
D12*
X27500Y30000D01*
X27500Y-10000D02*
X50000Y-10000D01*
D13*
X50000Y-10000D03*
X50000Y-30000D03*
D12*
X27500Y-30000D01*
X-27500Y-10000D02*
X-50000Y-10000D01*
D13*
X-50000Y-10000D03*
D12*
X-50000Y-30000D02*
X-27500Y-30000D01*
D13*
X-50000Y-30000D03*
D14*
X-20000Y80000D02*
X20000Y80000D01*
X10000Y90000D01*
X10000Y70000D01*
X20000Y80000D01*
X20000Y-80000D02*
X-20000Y-80000D01*
X10000Y-70000D02*
X20000Y-80000D01*
X10000Y-70000D02*
X10000Y-90000D01*
X20000Y-80000D01*
M02*
