G04 EAGLE Gerber RS-274X export*
G75*
%MOMM*%
%FSLAX34Y34*%
%LPD*%
%IN*%
%IPPOS*%
%AMOC8*
5,1,8,0,0,1.08239X$1,22.5*%
G01*
%ADD10C,0.254000*%


D10*
X-120000Y0D02*
X-119543Y-10459D01*
X-118177Y-20838D01*
X-115911Y-31058D01*
X-112763Y-41042D01*
X-108757Y-50714D01*
X-103923Y-60000D01*
X-98298Y-68829D01*
X-91925Y-77135D01*
X-84853Y-84853D01*
X-77135Y-91925D01*
X-68829Y-98298D01*
X-60000Y-103923D01*
X-50714Y-108757D01*
X-41042Y-112763D01*
X-31058Y-115911D01*
X-20838Y-118177D01*
X-10459Y-119543D01*
X0Y-120000D01*
X10459Y-119543D01*
X20838Y-118177D01*
X31058Y-115911D01*
X41042Y-112763D01*
X50714Y-108757D01*
X60000Y-103923D01*
X68829Y-98298D01*
X77135Y-91925D01*
X84853Y-84853D01*
X91925Y-77135D01*
X98298Y-68829D01*
X103923Y-60000D01*
X108757Y-50714D01*
X112763Y-41042D01*
X115911Y-31058D01*
X118177Y-20838D01*
X119543Y-10459D01*
X120000Y0D01*
X119543Y10459D01*
X118177Y20838D01*
X115911Y31058D01*
X112763Y41042D01*
X108757Y50714D01*
X103923Y60000D01*
X98298Y68829D01*
X91925Y77135D01*
X84853Y84853D01*
X77135Y91925D01*
X68829Y98298D01*
X60000Y103923D01*
X50714Y108757D01*
X41042Y112763D01*
X31058Y115911D01*
X20838Y118177D01*
X10459Y119543D01*
X0Y120000D01*
X-10459Y119543D01*
X-20838Y118177D01*
X-31058Y115911D01*
X-41042Y112763D01*
X-50714Y108757D01*
X-60000Y103923D01*
X-68829Y98298D01*
X-77135Y91925D01*
X-84853Y84853D01*
X-91925Y77135D01*
X-98298Y68829D01*
X-103923Y60000D01*
X-108757Y50714D01*
X-112763Y41042D01*
X-115911Y31058D01*
X-118177Y20838D01*
X-119543Y10459D01*
X-120000Y0D01*
M02*
