G04 EAGLE Gerber RS-274X export*
G75*
%MOMM*%
%FSLAX34Y34*%
%LPD*%
%INSilkscreen Bottom*%
%IPPOS*%
%AMOC8*
5,1,8,0,0,1.08239X$1,22.5*%
G01*
%ADD10C,0.076200*%
%ADD11C,0.127000*%
%ADD12C,0.200000*%


D10*
X47193Y-51619D02*
X47193Y-42373D01*
X44111Y-45455D01*
X41029Y-42373D01*
X41029Y-51619D01*
X37985Y-51619D02*
X34903Y-51619D01*
X36444Y-51619D02*
X36444Y-42373D01*
X37985Y-42373D02*
X34903Y-42373D01*
X28765Y-42373D02*
X28765Y-51619D01*
X31847Y-42373D02*
X25683Y-42373D01*
X13431Y-42373D02*
X13431Y-51619D01*
X7267Y-51619D01*
X4223Y-45455D02*
X2682Y-45455D01*
X2682Y-51619D01*
X4223Y-51619D02*
X1141Y-51619D01*
X2682Y-42373D02*
X2682Y-40832D01*
X-3457Y-45455D02*
X-8079Y-45455D01*
X-3457Y-45455D02*
X-1916Y-46996D01*
X-1916Y-50078D01*
X-3457Y-51619D01*
X-8079Y-51619D01*
X-12664Y-51619D02*
X-15746Y-51619D01*
X-12664Y-51619D02*
X-11123Y-50078D01*
X-11123Y-46996D01*
X-12664Y-45455D01*
X-15746Y-45455D01*
X-17287Y-46996D01*
X-17287Y-48537D01*
X-11123Y-48537D01*
X-20331Y-51619D02*
X-20331Y-45455D01*
X-24954Y-45455D01*
X-26495Y-46996D01*
X-26495Y-51619D01*
X-29539Y-51619D02*
X-34162Y-51619D01*
X-35703Y-50078D01*
X-34162Y-48537D01*
X-31080Y-48537D01*
X-29539Y-46996D01*
X-31080Y-45455D01*
X-35703Y-45455D01*
X-40288Y-51619D02*
X-43370Y-51619D01*
X-40288Y-51619D02*
X-38747Y-50078D01*
X-38747Y-46996D01*
X-40288Y-45455D01*
X-43370Y-45455D01*
X-44911Y-46996D01*
X-44911Y-48537D01*
X-38747Y-48537D01*
X72515Y-57373D02*
X72515Y-66619D01*
X69433Y-60455D02*
X72515Y-57373D01*
X69433Y-60455D02*
X66351Y-57373D01*
X66351Y-66619D01*
X61766Y-60455D02*
X58684Y-60455D01*
X57143Y-61996D01*
X57143Y-66619D01*
X61766Y-66619D01*
X63307Y-65078D01*
X61766Y-63537D01*
X57143Y-63537D01*
X52558Y-65078D02*
X52558Y-58914D01*
X52558Y-65078D02*
X51017Y-66619D01*
X51017Y-60455D02*
X54099Y-60455D01*
X46419Y-66619D02*
X43337Y-66619D01*
X46419Y-66619D02*
X47960Y-65078D01*
X47960Y-61996D01*
X46419Y-60455D01*
X43337Y-60455D01*
X41796Y-61996D01*
X41796Y-63537D01*
X47960Y-63537D01*
X38753Y-66619D02*
X38753Y-57373D01*
X38753Y-66619D02*
X32589Y-66619D01*
X29545Y-60455D02*
X28004Y-60455D01*
X28004Y-66619D01*
X29545Y-66619D02*
X26463Y-66619D01*
X28004Y-57373D02*
X28004Y-55832D01*
X20324Y-69701D02*
X18783Y-69701D01*
X17242Y-68160D01*
X17242Y-60455D01*
X21865Y-60455D01*
X23406Y-61996D01*
X23406Y-65078D01*
X21865Y-66619D01*
X17242Y-66619D01*
X14198Y-66619D02*
X14198Y-57373D01*
X12657Y-60455D02*
X14198Y-61996D01*
X12657Y-60455D02*
X9575Y-60455D01*
X8034Y-61996D01*
X8034Y-66619D01*
X3449Y-65078D02*
X3449Y-58914D01*
X3449Y-65078D02*
X1909Y-66619D01*
X1909Y-60455D02*
X4990Y-60455D01*
X-5771Y-57373D02*
X-7312Y-58914D01*
X-5771Y-57373D02*
X-2689Y-57373D01*
X-1148Y-58914D01*
X-1148Y-60455D01*
X-2689Y-61996D01*
X-5771Y-61996D01*
X-7312Y-63537D01*
X-7312Y-65078D01*
X-5771Y-66619D01*
X-2689Y-66619D01*
X-1148Y-65078D01*
X-11897Y-60455D02*
X-16520Y-60455D01*
X-11897Y-60455D02*
X-10356Y-61996D01*
X-10356Y-65078D01*
X-11897Y-66619D01*
X-16520Y-66619D01*
X-19564Y-66619D02*
X-19564Y-60455D01*
X-19564Y-63537D02*
X-22646Y-60455D01*
X-24187Y-60455D01*
X-28778Y-66619D02*
X-31860Y-66619D01*
X-28778Y-66619D02*
X-27237Y-65078D01*
X-27237Y-61996D01*
X-28778Y-60455D01*
X-31860Y-60455D01*
X-33401Y-61996D01*
X-33401Y-63537D01*
X-27237Y-63537D01*
X-36445Y-65078D02*
X-36445Y-60455D01*
X-36445Y-65078D02*
X-37986Y-66619D01*
X-39527Y-65078D01*
X-41068Y-66619D01*
X-42609Y-65078D01*
X-42609Y-60455D01*
X-50276Y-57373D02*
X-51817Y-58914D01*
X-50276Y-57373D02*
X-47194Y-57373D01*
X-45653Y-58914D01*
X-45653Y-65078D01*
X-47194Y-66619D01*
X-50276Y-66619D01*
X-51817Y-65078D01*
X-56402Y-60455D02*
X-59484Y-60455D01*
X-61024Y-61996D01*
X-61024Y-66619D01*
X-56402Y-66619D01*
X-54861Y-65078D01*
X-56402Y-63537D01*
X-61024Y-63537D01*
X-64068Y-60455D02*
X-64068Y-69701D01*
X-64068Y-60455D02*
X-68691Y-60455D01*
X-70232Y-61996D01*
X-70232Y-65078D01*
X-68691Y-66619D01*
X-64068Y-66619D01*
X80188Y-72373D02*
X80188Y-81619D01*
X75565Y-81619D01*
X74024Y-80078D01*
X74024Y-76996D01*
X75565Y-75455D01*
X80188Y-75455D01*
X70980Y-75455D02*
X70980Y-80078D01*
X69439Y-81619D01*
X64816Y-81619D01*
X64816Y-83160D02*
X64816Y-75455D01*
X64816Y-83160D02*
X66357Y-84701D01*
X67898Y-84701D01*
X52564Y-81619D02*
X52564Y-72373D01*
X52564Y-76996D02*
X46400Y-76996D01*
X46400Y-72373D02*
X46400Y-81619D01*
X41816Y-75455D02*
X38734Y-75455D01*
X37193Y-76996D01*
X37193Y-81619D01*
X41816Y-81619D01*
X43356Y-80078D01*
X41816Y-78537D01*
X37193Y-78537D01*
X34149Y-81619D02*
X34149Y-75455D01*
X29526Y-75455D01*
X27985Y-76996D01*
X27985Y-81619D01*
X24941Y-81619D02*
X20318Y-81619D01*
X18777Y-80078D01*
X20318Y-78537D01*
X23400Y-78537D01*
X24941Y-76996D01*
X23400Y-75455D01*
X18777Y-75455D01*
X6525Y-75455D02*
X6525Y-81619D01*
X6525Y-75455D02*
X3443Y-72373D01*
X361Y-75455D01*
X361Y-81619D01*
X361Y-76996D02*
X6525Y-76996D01*
X-4224Y-75455D02*
X-8847Y-75455D01*
X-4224Y-75455D02*
X-2683Y-76996D01*
X-2683Y-80078D01*
X-4224Y-81619D01*
X-8847Y-81619D01*
X-11891Y-81619D02*
X-11891Y-72373D01*
X-13432Y-75455D02*
X-11891Y-76996D01*
X-13432Y-75455D02*
X-16514Y-75455D01*
X-18055Y-76996D01*
X-18055Y-81619D01*
X-22639Y-80078D02*
X-22639Y-73914D01*
X-22639Y-80078D02*
X-24180Y-81619D01*
X-24180Y-75455D02*
X-21098Y-75455D01*
X-28778Y-81619D02*
X-31860Y-81619D01*
X-28778Y-81619D02*
X-27237Y-80078D01*
X-27237Y-76996D01*
X-28778Y-75455D01*
X-31860Y-75455D01*
X-33401Y-76996D01*
X-33401Y-78537D01*
X-27237Y-78537D01*
X-36445Y-81619D02*
X-36445Y-75455D01*
X-36445Y-78537D02*
X-39527Y-75455D01*
X-41068Y-75455D01*
X-44118Y-72373D02*
X-44118Y-81619D01*
X-48741Y-81619D01*
X-50282Y-80078D01*
X-50282Y-76996D01*
X-48741Y-75455D01*
X-44118Y-75455D01*
X-54867Y-75455D02*
X-57949Y-75455D01*
X-59490Y-76996D01*
X-59490Y-81619D01*
X-54867Y-81619D01*
X-53326Y-80078D01*
X-54867Y-78537D01*
X-59490Y-78537D01*
X-62534Y-81619D02*
X-62534Y-72373D01*
X-64075Y-75455D02*
X-62534Y-76996D01*
X-64075Y-75455D02*
X-67157Y-75455D01*
X-68698Y-76996D01*
X-68698Y-81619D01*
X-71742Y-81619D02*
X-71742Y-75455D01*
X-76365Y-75455D01*
X-77906Y-76996D01*
X-77906Y-81619D01*
X39513Y-87373D02*
X41054Y-88914D01*
X39513Y-87373D02*
X36431Y-87373D01*
X34891Y-88914D01*
X34891Y-90455D01*
X36431Y-91996D01*
X37972Y-91996D01*
X36431Y-91996D02*
X34891Y-93537D01*
X34891Y-95078D01*
X36431Y-96619D01*
X39513Y-96619D01*
X41054Y-95078D01*
X31847Y-90455D02*
X28765Y-87373D01*
X28765Y-96619D01*
X31847Y-96619D02*
X25683Y-96619D01*
X22639Y-96619D02*
X22639Y-95078D01*
X21098Y-95078D01*
X21098Y-96619D01*
X22639Y-96619D01*
X18035Y-90455D02*
X14953Y-87373D01*
X14953Y-96619D01*
X18035Y-96619D02*
X11871Y-96619D01*
X8827Y-95078D02*
X8827Y-88914D01*
X7286Y-87373D01*
X4204Y-87373D01*
X2663Y-88914D01*
X2663Y-95078D01*
X4204Y-96619D01*
X7286Y-96619D01*
X8827Y-95078D01*
X2663Y-88914D01*
X-381Y-95078D02*
X-381Y-96619D01*
X-381Y-95078D02*
X-1922Y-95078D01*
X-1922Y-96619D01*
X-381Y-96619D01*
X-4985Y-96619D02*
X-11149Y-96619D01*
X-4985Y-96619D02*
X-11149Y-90455D01*
X-11149Y-88914D01*
X-9608Y-87373D01*
X-6526Y-87373D01*
X-4985Y-88914D01*
X-14193Y-88914D02*
X-14193Y-95078D01*
X-14193Y-88914D02*
X-15734Y-87373D01*
X-18816Y-87373D01*
X-20357Y-88914D01*
X-20357Y-95078D01*
X-18816Y-96619D01*
X-15734Y-96619D01*
X-14193Y-95078D01*
X-20357Y-88914D01*
X-23400Y-90455D02*
X-26482Y-87373D01*
X-26482Y-96619D01*
X-23400Y-96619D02*
X-29564Y-96619D01*
X-32608Y-95078D02*
X-34149Y-96619D01*
X-37231Y-96619D01*
X-38772Y-95078D01*
X-38772Y-88914D01*
X-37231Y-87373D01*
X-34149Y-87373D01*
X-32608Y-88914D01*
X-32608Y-90455D01*
X-34149Y-91996D01*
X-38772Y-91996D01*
X19557Y-111619D02*
X22639Y-105455D01*
X16475Y-105455D02*
X19557Y-111619D01*
X13431Y-110078D02*
X13431Y-103914D01*
X11890Y-102373D01*
X8808Y-102373D01*
X7267Y-103914D01*
X7267Y-110078D01*
X8808Y-111619D01*
X11890Y-111619D01*
X13431Y-110078D01*
X7267Y-103914D01*
X4223Y-110078D02*
X4223Y-111619D01*
X4223Y-110078D02*
X2682Y-110078D01*
X2682Y-111619D01*
X4223Y-111619D01*
X-381Y-105455D02*
X-3463Y-102373D01*
X-3463Y-111619D01*
X-381Y-111619D02*
X-6545Y-111619D01*
X-9589Y-111619D02*
X-9589Y-110078D01*
X-11130Y-110078D01*
X-11130Y-111619D01*
X-9589Y-111619D01*
X-14193Y-110078D02*
X-14193Y-103914D01*
X-15734Y-102373D01*
X-18816Y-102373D01*
X-20357Y-103914D01*
X-20357Y-110078D01*
X-18816Y-111619D01*
X-15734Y-111619D01*
X-14193Y-110078D01*
X-20357Y-103914D01*
X31079Y102381D02*
X31079Y111627D01*
X29538Y108545D02*
X31079Y107004D01*
X29538Y108545D02*
X26456Y108545D01*
X24915Y107004D01*
X24915Y102381D01*
X20330Y103922D02*
X20330Y110086D01*
X20330Y103922D02*
X18789Y102381D01*
X18789Y108545D02*
X21871Y108545D01*
X14192Y110086D02*
X14192Y103922D01*
X12651Y102381D01*
X12651Y108545D02*
X15733Y108545D01*
X9594Y108545D02*
X9594Y99299D01*
X9594Y108545D02*
X4971Y108545D01*
X3430Y107004D01*
X3430Y103922D01*
X4971Y102381D01*
X9594Y102381D01*
X386Y102381D02*
X-4237Y102381D01*
X-5778Y103922D01*
X-4237Y105463D01*
X-1155Y105463D01*
X386Y107004D01*
X-1155Y108545D01*
X-5778Y108545D01*
X-8821Y108545D02*
X-10362Y108545D01*
X-10362Y107004D01*
X-8821Y107004D01*
X-8821Y108545D01*
X-8821Y103922D02*
X-10362Y103922D01*
X-10362Y102381D01*
X-8821Y102381D01*
X-8821Y103922D01*
X-13425Y102381D02*
X-19589Y111627D01*
X-28797Y111627D02*
X-22633Y102381D01*
X40268Y84299D02*
X41809Y84299D01*
X40268Y84299D02*
X38727Y85840D01*
X38727Y93545D01*
X43350Y93545D01*
X44891Y92004D01*
X44891Y88922D01*
X43350Y87381D01*
X38727Y87381D01*
X35683Y93545D02*
X34142Y93545D01*
X34142Y87381D01*
X35683Y87381D02*
X32601Y87381D01*
X34142Y96627D02*
X34142Y98168D01*
X28004Y95086D02*
X28004Y88922D01*
X26463Y87381D01*
X26463Y93545D02*
X29545Y93545D01*
X23406Y96627D02*
X23406Y87381D01*
X23406Y92004D02*
X21865Y93545D01*
X18783Y93545D01*
X17242Y92004D01*
X17242Y87381D01*
X14198Y88922D02*
X14198Y93545D01*
X14198Y88922D02*
X12657Y87381D01*
X8034Y87381D01*
X8034Y93545D01*
X4990Y96627D02*
X4990Y87381D01*
X367Y87381D01*
X-1174Y88922D01*
X-1174Y92004D01*
X367Y93545D01*
X4990Y93545D01*
X-4217Y88922D02*
X-4217Y87381D01*
X-4217Y88922D02*
X-5758Y88922D01*
X-5758Y87381D01*
X-4217Y87381D01*
X-10362Y93545D02*
X-14985Y93545D01*
X-10362Y93545D02*
X-8821Y92004D01*
X-8821Y88922D01*
X-10362Y87381D01*
X-14985Y87381D01*
X-19570Y87381D02*
X-22652Y87381D01*
X-24193Y88922D01*
X-24193Y92004D01*
X-22652Y93545D01*
X-19570Y93545D01*
X-18029Y92004D01*
X-18029Y88922D01*
X-19570Y87381D01*
X-27237Y87381D02*
X-27237Y93545D01*
X-28778Y93545D01*
X-30319Y92004D01*
X-30319Y87381D01*
X-30319Y92004D02*
X-31860Y93545D01*
X-33401Y92004D01*
X-33401Y87381D01*
X-36445Y87381D02*
X-42609Y96627D01*
X66376Y81627D02*
X66376Y72381D01*
X66376Y77004D02*
X60212Y77004D01*
X60212Y81627D02*
X60212Y72381D01*
X55627Y78545D02*
X52545Y78545D01*
X51004Y77004D01*
X51004Y72381D01*
X55627Y72381D01*
X57168Y73922D01*
X55627Y75463D01*
X51004Y75463D01*
X47960Y72381D02*
X47960Y78545D01*
X43337Y78545D01*
X41796Y77004D01*
X41796Y72381D01*
X38753Y72381D02*
X34130Y72381D01*
X32589Y73922D01*
X34130Y75463D01*
X37212Y75463D01*
X38753Y77004D01*
X37212Y78545D01*
X32589Y78545D01*
X29545Y78545D02*
X29545Y72381D01*
X29545Y78545D02*
X26463Y81627D01*
X23381Y78545D01*
X23381Y72381D01*
X23381Y77004D02*
X29545Y77004D01*
X18796Y78545D02*
X14173Y78545D01*
X18796Y78545D02*
X20337Y77004D01*
X20337Y73922D01*
X18796Y72381D01*
X14173Y72381D01*
X11129Y72381D02*
X11129Y81627D01*
X9588Y78545D02*
X11129Y77004D01*
X9588Y78545D02*
X6506Y78545D01*
X4965Y77004D01*
X4965Y72381D01*
X380Y73922D02*
X380Y80086D01*
X380Y73922D02*
X-1161Y72381D01*
X-1161Y78545D02*
X1921Y78545D01*
X-5758Y72381D02*
X-8840Y72381D01*
X-5758Y72381D02*
X-4217Y73922D01*
X-4217Y77004D01*
X-5758Y78545D01*
X-8840Y78545D01*
X-10381Y77004D01*
X-10381Y75463D01*
X-4217Y75463D01*
X-13425Y72381D02*
X-13425Y78545D01*
X-13425Y75463D02*
X-16507Y78545D01*
X-18048Y78545D01*
X-21098Y81627D02*
X-21098Y72381D01*
X-25721Y72381D01*
X-27262Y73922D01*
X-27262Y77004D01*
X-25721Y78545D01*
X-21098Y78545D01*
X-31847Y78545D02*
X-34929Y78545D01*
X-36470Y77004D01*
X-36470Y72381D01*
X-31847Y72381D01*
X-30306Y73922D01*
X-31847Y75463D01*
X-36470Y75463D01*
X-39514Y72381D02*
X-39514Y81627D01*
X-41055Y78545D02*
X-39514Y77004D01*
X-41055Y78545D02*
X-44137Y78545D01*
X-45678Y77004D01*
X-45678Y72381D01*
X-48722Y72381D02*
X-48722Y78545D01*
X-53345Y78545D01*
X-54886Y77004D01*
X-54886Y72381D01*
X-57930Y72381D02*
X-64094Y81627D01*
X72515Y66627D02*
X72515Y57381D01*
X69433Y63545D02*
X72515Y66627D01*
X69433Y63545D02*
X66351Y66627D01*
X66351Y57381D01*
X61766Y63545D02*
X58684Y63545D01*
X57143Y62004D01*
X57143Y57381D01*
X61766Y57381D01*
X63307Y58922D01*
X61766Y60463D01*
X57143Y60463D01*
X52558Y58922D02*
X52558Y65086D01*
X52558Y58922D02*
X51017Y57381D01*
X51017Y63545D02*
X54099Y63545D01*
X46419Y57381D02*
X43337Y57381D01*
X46419Y57381D02*
X47960Y58922D01*
X47960Y62004D01*
X46419Y63545D01*
X43337Y63545D01*
X41796Y62004D01*
X41796Y60463D01*
X47960Y60463D01*
X38753Y57381D02*
X38753Y66627D01*
X38753Y57381D02*
X32589Y57381D01*
X29545Y63545D02*
X28004Y63545D01*
X28004Y57381D01*
X29545Y57381D02*
X26463Y57381D01*
X28004Y66627D02*
X28004Y68168D01*
X20324Y54299D02*
X18783Y54299D01*
X17242Y55840D01*
X17242Y63545D01*
X21865Y63545D01*
X23406Y62004D01*
X23406Y58922D01*
X21865Y57381D01*
X17242Y57381D01*
X14198Y57381D02*
X14198Y66627D01*
X12657Y63545D02*
X14198Y62004D01*
X12657Y63545D02*
X9575Y63545D01*
X8034Y62004D01*
X8034Y57381D01*
X3449Y58922D02*
X3449Y65086D01*
X3449Y58922D02*
X1909Y57381D01*
X1909Y63545D02*
X4990Y63545D01*
X-5771Y66627D02*
X-7312Y65086D01*
X-5771Y66627D02*
X-2689Y66627D01*
X-1148Y65086D01*
X-1148Y63545D01*
X-2689Y62004D01*
X-5771Y62004D01*
X-7312Y60463D01*
X-7312Y58922D01*
X-5771Y57381D01*
X-2689Y57381D01*
X-1148Y58922D01*
X-11897Y63545D02*
X-16520Y63545D01*
X-11897Y63545D02*
X-10356Y62004D01*
X-10356Y58922D01*
X-11897Y57381D01*
X-16520Y57381D01*
X-19564Y57381D02*
X-19564Y63545D01*
X-19564Y60463D02*
X-22646Y63545D01*
X-24187Y63545D01*
X-28778Y57381D02*
X-31860Y57381D01*
X-28778Y57381D02*
X-27237Y58922D01*
X-27237Y62004D01*
X-28778Y63545D01*
X-31860Y63545D01*
X-33401Y62004D01*
X-33401Y60463D01*
X-27237Y60463D01*
X-36445Y58922D02*
X-36445Y63545D01*
X-36445Y58922D02*
X-37986Y57381D01*
X-39527Y58922D01*
X-41068Y57381D01*
X-42609Y58922D01*
X-42609Y63545D01*
X-50276Y66627D02*
X-51817Y65086D01*
X-50276Y66627D02*
X-47194Y66627D01*
X-45653Y65086D01*
X-45653Y58922D01*
X-47194Y57381D01*
X-50276Y57381D01*
X-51817Y58922D01*
X-56402Y63545D02*
X-59484Y63545D01*
X-61024Y62004D01*
X-61024Y57381D01*
X-56402Y57381D01*
X-54861Y58922D01*
X-56402Y60463D01*
X-61024Y60463D01*
X-64068Y63545D02*
X-64068Y54299D01*
X-64068Y63545D02*
X-68691Y63545D01*
X-70232Y62004D01*
X-70232Y58922D01*
X-68691Y57381D01*
X-64068Y57381D01*
D11*
X-25000Y25000D02*
X25000Y25000D01*
X25000Y12000D02*
X25000Y6000D01*
X25000Y-25000D02*
X-25000Y-25000D01*
X-12500Y0D02*
X-12496Y302D01*
X-12485Y604D01*
X-12467Y905D01*
X-12442Y1206D01*
X-12409Y1507D01*
X-12369Y1806D01*
X-12322Y2104D01*
X-12267Y2402D01*
X-12206Y2697D01*
X-12137Y2991D01*
X-12061Y3284D01*
X-11978Y3574D01*
X-11888Y3863D01*
X-11791Y4149D01*
X-11688Y4433D01*
X-11577Y4714D01*
X-11460Y4992D01*
X-11336Y5268D01*
X-11205Y5540D01*
X-11068Y5809D01*
X-10925Y6075D01*
X-10775Y6337D01*
X-10618Y6596D01*
X-10456Y6850D01*
X-10287Y7101D01*
X-10113Y7347D01*
X-9932Y7590D01*
X-9746Y7827D01*
X-9554Y8061D01*
X-9356Y8289D01*
X-9153Y8513D01*
X-8945Y8731D01*
X-8731Y8945D01*
X-8513Y9153D01*
X-8289Y9356D01*
X-8061Y9554D01*
X-7827Y9746D01*
X-7590Y9932D01*
X-7347Y10113D01*
X-7101Y10287D01*
X-6850Y10456D01*
X-6596Y10618D01*
X-6337Y10775D01*
X-6075Y10925D01*
X-5809Y11068D01*
X-5540Y11205D01*
X-5268Y11336D01*
X-4992Y11460D01*
X-4714Y11577D01*
X-4433Y11688D01*
X-4149Y11791D01*
X-3863Y11888D01*
X-3574Y11978D01*
X-3284Y12061D01*
X-2991Y12137D01*
X-2697Y12206D01*
X-2402Y12267D01*
X-2104Y12322D01*
X-1806Y12369D01*
X-1507Y12409D01*
X-1206Y12442D01*
X-905Y12467D01*
X-604Y12485D01*
X-302Y12496D01*
X0Y12500D01*
X307Y12496D01*
X613Y12485D01*
X920Y12466D01*
X1225Y12440D01*
X1530Y12406D01*
X1834Y12365D01*
X2137Y12316D01*
X2439Y12260D01*
X2739Y12196D01*
X3037Y12125D01*
X3334Y12047D01*
X3629Y11962D01*
X3921Y11869D01*
X4211Y11769D01*
X4499Y11662D01*
X4784Y11548D01*
X5066Y11428D01*
X5344Y11300D01*
X5620Y11165D01*
X5892Y11024D01*
X6161Y10876D01*
X6426Y10722D01*
X6687Y10561D01*
X6945Y10393D01*
X7198Y10220D01*
X7446Y10040D01*
X7690Y9854D01*
X7930Y9663D01*
X8165Y9465D01*
X8394Y9262D01*
X8619Y9053D01*
X8839Y8839D01*
X9053Y8619D01*
X9262Y8394D01*
X9465Y8165D01*
X9663Y7930D01*
X9854Y7690D01*
X10040Y7446D01*
X10220Y7198D01*
X10393Y6945D01*
X10561Y6687D01*
X10722Y6426D01*
X10876Y6161D01*
X11024Y5892D01*
X11165Y5620D01*
X11300Y5344D01*
X11428Y5066D01*
X11548Y4784D01*
X11662Y4499D01*
X11769Y4211D01*
X11869Y3921D01*
X11962Y3629D01*
X12047Y3334D01*
X12125Y3037D01*
X12196Y2739D01*
X12260Y2439D01*
X12316Y2137D01*
X12365Y1834D01*
X12406Y1530D01*
X12440Y1225D01*
X12466Y920D01*
X12485Y613D01*
X12496Y307D01*
X12500Y0D01*
X12496Y-302D01*
X12485Y-604D01*
X12467Y-905D01*
X12442Y-1206D01*
X12409Y-1507D01*
X12369Y-1806D01*
X12322Y-2104D01*
X12267Y-2402D01*
X12206Y-2697D01*
X12137Y-2991D01*
X12061Y-3284D01*
X11978Y-3574D01*
X11888Y-3863D01*
X11791Y-4149D01*
X11688Y-4433D01*
X11577Y-4714D01*
X11460Y-4992D01*
X11336Y-5268D01*
X11205Y-5540D01*
X11068Y-5809D01*
X10925Y-6075D01*
X10775Y-6337D01*
X10618Y-6596D01*
X10456Y-6850D01*
X10287Y-7101D01*
X10113Y-7347D01*
X9932Y-7590D01*
X9746Y-7827D01*
X9554Y-8061D01*
X9356Y-8289D01*
X9153Y-8513D01*
X8945Y-8731D01*
X8731Y-8945D01*
X8513Y-9153D01*
X8289Y-9356D01*
X8061Y-9554D01*
X7827Y-9746D01*
X7590Y-9932D01*
X7347Y-10113D01*
X7101Y-10287D01*
X6850Y-10456D01*
X6596Y-10618D01*
X6337Y-10775D01*
X6075Y-10925D01*
X5809Y-11068D01*
X5540Y-11205D01*
X5268Y-11336D01*
X4992Y-11460D01*
X4714Y-11577D01*
X4433Y-11688D01*
X4149Y-11791D01*
X3863Y-11888D01*
X3574Y-11978D01*
X3284Y-12061D01*
X2991Y-12137D01*
X2697Y-12206D01*
X2402Y-12267D01*
X2104Y-12322D01*
X1806Y-12369D01*
X1507Y-12409D01*
X1206Y-12442D01*
X905Y-12467D01*
X604Y-12485D01*
X302Y-12496D01*
X0Y-12500D01*
X-302Y-12496D01*
X-604Y-12485D01*
X-905Y-12467D01*
X-1206Y-12442D01*
X-1507Y-12409D01*
X-1806Y-12369D01*
X-2104Y-12322D01*
X-2402Y-12267D01*
X-2697Y-12206D01*
X-2991Y-12137D01*
X-3284Y-12061D01*
X-3574Y-11978D01*
X-3863Y-11888D01*
X-4149Y-11791D01*
X-4433Y-11688D01*
X-4714Y-11577D01*
X-4992Y-11460D01*
X-5268Y-11336D01*
X-5540Y-11205D01*
X-5809Y-11068D01*
X-6075Y-10925D01*
X-6337Y-10775D01*
X-6596Y-10618D01*
X-6850Y-10456D01*
X-7101Y-10287D01*
X-7347Y-10113D01*
X-7590Y-9932D01*
X-7827Y-9746D01*
X-8061Y-9554D01*
X-8289Y-9356D01*
X-8513Y-9153D01*
X-8731Y-8945D01*
X-8945Y-8731D01*
X-9153Y-8513D01*
X-9356Y-8289D01*
X-9554Y-8061D01*
X-9746Y-7827D01*
X-9932Y-7590D01*
X-10113Y-7347D01*
X-10287Y-7101D01*
X-10456Y-6850D01*
X-10618Y-6596D01*
X-10775Y-6337D01*
X-10925Y-6075D01*
X-11068Y-5809D01*
X-11205Y-5540D01*
X-11336Y-5268D01*
X-11460Y-4992D01*
X-11577Y-4714D01*
X-11688Y-4433D01*
X-11791Y-4149D01*
X-11888Y-3863D01*
X-11978Y-3574D01*
X-12061Y-3284D01*
X-12137Y-2991D01*
X-12206Y-2697D01*
X-12267Y-2402D01*
X-12322Y-2104D01*
X-12369Y-1806D01*
X-12409Y-1507D01*
X-12442Y-1206D01*
X-12467Y-905D01*
X-12485Y-604D01*
X-12496Y-302D01*
X-12500Y0D01*
X-25000Y6000D02*
X-25000Y12000D01*
X25000Y-6000D02*
X25000Y-12000D01*
X-25000Y-12000D02*
X-25000Y-6000D01*
D12*
X-21000Y-30000D02*
X-20998Y-29937D01*
X-20992Y-29875D01*
X-20982Y-29813D01*
X-20969Y-29751D01*
X-20951Y-29691D01*
X-20930Y-29632D01*
X-20905Y-29574D01*
X-20876Y-29518D01*
X-20844Y-29464D01*
X-20809Y-29412D01*
X-20771Y-29363D01*
X-20729Y-29315D01*
X-20685Y-29271D01*
X-20637Y-29229D01*
X-20588Y-29191D01*
X-20536Y-29156D01*
X-20482Y-29124D01*
X-20426Y-29095D01*
X-20368Y-29070D01*
X-20309Y-29049D01*
X-20249Y-29031D01*
X-20187Y-29018D01*
X-20125Y-29008D01*
X-20063Y-29002D01*
X-20000Y-29000D01*
X-19937Y-29002D01*
X-19875Y-29008D01*
X-19813Y-29018D01*
X-19751Y-29031D01*
X-19691Y-29049D01*
X-19632Y-29070D01*
X-19574Y-29095D01*
X-19518Y-29124D01*
X-19464Y-29156D01*
X-19412Y-29191D01*
X-19363Y-29229D01*
X-19315Y-29271D01*
X-19271Y-29315D01*
X-19229Y-29363D01*
X-19191Y-29412D01*
X-19156Y-29464D01*
X-19124Y-29518D01*
X-19095Y-29574D01*
X-19070Y-29632D01*
X-19049Y-29691D01*
X-19031Y-29751D01*
X-19018Y-29813D01*
X-19008Y-29875D01*
X-19002Y-29937D01*
X-19000Y-30000D01*
X-19002Y-30063D01*
X-19008Y-30125D01*
X-19018Y-30187D01*
X-19031Y-30249D01*
X-19049Y-30309D01*
X-19070Y-30368D01*
X-19095Y-30426D01*
X-19124Y-30482D01*
X-19156Y-30536D01*
X-19191Y-30588D01*
X-19229Y-30637D01*
X-19271Y-30685D01*
X-19315Y-30729D01*
X-19363Y-30771D01*
X-19412Y-30809D01*
X-19464Y-30844D01*
X-19518Y-30876D01*
X-19574Y-30905D01*
X-19632Y-30930D01*
X-19691Y-30951D01*
X-19751Y-30969D01*
X-19813Y-30982D01*
X-19875Y-30992D01*
X-19937Y-30998D01*
X-20000Y-31000D01*
X-20063Y-30998D01*
X-20125Y-30992D01*
X-20187Y-30982D01*
X-20249Y-30969D01*
X-20309Y-30951D01*
X-20368Y-30930D01*
X-20426Y-30905D01*
X-20482Y-30876D01*
X-20536Y-30844D01*
X-20588Y-30809D01*
X-20637Y-30771D01*
X-20685Y-30729D01*
X-20729Y-30685D01*
X-20771Y-30637D01*
X-20809Y-30588D01*
X-20844Y-30536D01*
X-20876Y-30482D01*
X-20905Y-30426D01*
X-20930Y-30368D01*
X-20951Y-30309D01*
X-20969Y-30249D01*
X-20982Y-30187D01*
X-20992Y-30125D01*
X-20998Y-30063D01*
X-21000Y-30000D01*
D10*
X79743Y12881D02*
X79743Y22127D01*
X79743Y12881D02*
X73579Y12881D01*
X70535Y12881D02*
X70535Y22127D01*
X70535Y12881D02*
X65912Y12881D01*
X64371Y14422D01*
X64371Y20586D01*
X65912Y22127D01*
X70535Y22127D01*
X61327Y19045D02*
X58245Y22127D01*
X58245Y12881D01*
X61327Y12881D02*
X55163Y12881D01*
X107366Y4045D02*
X107366Y-2119D01*
X107366Y4045D02*
X104284Y7127D01*
X101202Y4045D01*
X101202Y-2119D01*
X101202Y2504D02*
X107366Y2504D01*
X98158Y-2119D02*
X98158Y7127D01*
X93535Y7127D01*
X91994Y5586D01*
X91994Y2504D01*
X93535Y963D01*
X98158Y963D01*
X88951Y-2119D02*
X88951Y4045D01*
X85869Y7127D01*
X82787Y4045D01*
X82787Y-2119D01*
X82787Y2504D02*
X88951Y2504D01*
X79743Y4045D02*
X76661Y7127D01*
X76661Y-2119D01*
X79743Y-2119D02*
X73579Y-2119D01*
X70535Y-578D02*
X70535Y5586D01*
X68994Y7127D01*
X65912Y7127D01*
X64371Y5586D01*
X64371Y-578D01*
X65912Y-2119D01*
X68994Y-2119D01*
X70535Y-578D01*
X64371Y5586D01*
X61327Y-2119D02*
X55163Y-2119D01*
X61327Y-2119D02*
X55163Y4045D01*
X55163Y5586D01*
X56704Y7127D01*
X59786Y7127D01*
X61327Y5586D01*
M02*
