G04 EAGLE Gerber RS-274X export*
G75*
%MOMM*%
%FSLAX34Y34*%
%LPD*%
%INSilkscreen Top*%
%IPPOS*%
%AMOC8*
5,1,8,0,0,1.08239X$1,22.5*%
G01*
%ADD10C,0.076200*%
%ADD11C,0.700000*%
%ADD12C,0.127000*%
%ADD13C,0.254000*%


D10*
X-2663Y64627D02*
X-8827Y64627D01*
X-8827Y60004D01*
X-5745Y61545D01*
X-4204Y61545D01*
X-2663Y60004D01*
X-2663Y56922D01*
X-4204Y55381D01*
X-7286Y55381D01*
X-8827Y56922D01*
X381Y58463D02*
X381Y64627D01*
X381Y58463D02*
X3463Y55381D01*
X6545Y58463D01*
X6545Y64627D01*
X-4223Y-52873D02*
X-4223Y-62119D01*
X400Y-62119D01*
X1941Y-60578D01*
X1941Y-54414D01*
X400Y-52873D01*
X-4223Y-52873D01*
X-7267Y-41914D02*
X-8808Y-40373D01*
X-11890Y-40373D01*
X-13431Y-41914D01*
X-13431Y-48078D01*
X-11890Y-49619D01*
X-8808Y-49619D01*
X-7267Y-48078D01*
X-4223Y-49619D02*
X-4223Y-40373D01*
X-4223Y-49619D02*
X1941Y-49619D01*
X4985Y-49619D02*
X4985Y-40373D01*
X4985Y-46537D02*
X11149Y-40373D01*
X6526Y-44996D02*
X11149Y-49619D01*
X-7267Y50586D02*
X-8808Y52127D01*
X-11890Y52127D01*
X-13431Y50586D01*
X-13431Y44422D01*
X-11890Y42881D01*
X-8808Y42881D01*
X-7267Y44422D01*
X-7267Y47504D01*
X-10349Y47504D01*
X-4223Y42881D02*
X-4223Y52127D01*
X1941Y42881D01*
X1941Y52127D01*
X4985Y52127D02*
X4985Y42881D01*
X9608Y42881D01*
X11149Y44422D01*
X11149Y50586D01*
X9608Y52127D01*
X4985Y52127D01*
D11*
X20000Y-80000D02*
X-20000Y-80000D01*
X10000Y-70000D02*
X20000Y-80000D01*
X10000Y-70000D02*
X10000Y-90000D01*
X20000Y-80000D01*
X20000Y80000D02*
X-20000Y80000D01*
X10000Y90000D02*
X20000Y80000D01*
X10000Y90000D02*
X10000Y70000D01*
X20000Y80000D01*
D12*
X100000Y39500D02*
X100000Y-39500D01*
X60000Y59500D02*
X24000Y59500D01*
X24000Y-59500D02*
X60000Y-59500D01*
X24000Y-59500D02*
X24000Y-40500D01*
X24000Y40500D02*
X24000Y59500D01*
D13*
X11500Y-39000D03*
D10*
X56545Y70381D02*
X50381Y79627D01*
X56545Y79627D02*
X50381Y70381D01*
X59589Y70381D02*
X65753Y70381D01*
X59589Y70381D02*
X65753Y76545D01*
X65753Y78086D01*
X64212Y79627D01*
X61130Y79627D01*
X59589Y78086D01*
X-39996Y-95373D02*
X-38455Y-96914D01*
X-39996Y-95373D02*
X-43078Y-95373D01*
X-44619Y-96914D01*
X-44619Y-98455D01*
X-43078Y-99996D01*
X-39996Y-99996D01*
X-38455Y-101537D01*
X-38455Y-103078D01*
X-39996Y-104619D01*
X-43078Y-104619D01*
X-44619Y-103078D01*
X-30788Y-104619D02*
X-30788Y-95373D01*
X-35411Y-99996D01*
X-29247Y-99996D01*
X-26203Y-104619D02*
X-26203Y-95373D01*
X-21580Y-95373D01*
X-20039Y-96914D01*
X-20039Y-98455D01*
X-21580Y-99996D01*
X-20039Y-101537D01*
X-20039Y-103078D01*
X-21580Y-104619D01*
X-26203Y-104619D01*
X-26203Y-99996D02*
X-21580Y-99996D01*
X-16995Y-99996D02*
X-10832Y-99996D01*
X-7788Y-104619D02*
X-7788Y-95373D01*
X-3165Y-95373D01*
X-1624Y-96914D01*
X-1624Y-99996D01*
X-3165Y-101537D01*
X-7788Y-101537D01*
X1420Y-104619D02*
X1420Y-95373D01*
X1420Y-99996D02*
X7584Y-99996D01*
X7584Y-95373D02*
X7584Y-104619D01*
X10628Y-99996D02*
X16792Y-99996D01*
X24459Y-95373D02*
X26000Y-96914D01*
X24459Y-95373D02*
X21377Y-95373D01*
X19836Y-96914D01*
X19836Y-98455D01*
X21377Y-99996D01*
X24459Y-99996D01*
X26000Y-101537D01*
X26000Y-103078D01*
X24459Y-104619D01*
X21377Y-104619D01*
X19836Y-103078D01*
X29044Y-104619D02*
X29044Y-95373D01*
X32126Y-98455D01*
X35208Y-95373D01*
X35208Y-104619D01*
X42875Y-104619D02*
X42875Y-95373D01*
X38252Y-99996D01*
X44416Y-99996D01*
D12*
X-100000Y-39500D02*
X-100000Y39500D01*
X-60000Y-59500D02*
X-24000Y-59500D01*
X-24000Y59500D02*
X-60000Y59500D01*
X-24000Y59500D02*
X-24000Y40500D01*
X-24000Y-40500D02*
X-24000Y-59500D01*
D13*
X-11500Y39000D03*
D10*
X-53455Y70381D02*
X-59619Y79627D01*
X-53455Y79627D02*
X-59619Y70381D01*
X-50411Y76545D02*
X-47329Y79627D01*
X-47329Y70381D01*
X-50411Y70381D02*
X-44247Y70381D01*
M02*
